<svg xmlns="http://www.w3.org/2000/svg" xmlns:xlink="http://www.w3.org/1999/xlink" width="45" zoomAndPan="magnify" viewBox="0 0 33.75 33.749999" height="45" preserveAspectRatio="xMidYMid meet" version="1.0"><defs><clipPath id="0acc501c54"><path d="M 4.425781 3.375 L 23.175781 3.375 L 23.175781 22.125 L 4.425781 22.125 Z M 4.425781 3.375 " clip-rule="nonzero"/></clipPath><clipPath id="43f789f42a"><path d="M 13.800781 3.375 C 8.621094 3.375 4.425781 7.574219 4.425781 12.75 C 4.425781 17.925781 8.621094 22.125 13.800781 22.125 C 18.976562 22.125 23.175781 17.925781 23.175781 12.75 C 23.175781 7.574219 18.976562 3.375 13.800781 3.375 " clip-rule="nonzero"/></clipPath><clipPath id="e0edf5f178"><path d="M 18 18 L 31 18 L 31 32 L 18 32 Z M 18 18 " clip-rule="nonzero"/></clipPath><clipPath id="597f610fd7"><path d="M 20.390625 17.800781 L 31.6875 29.097656 L 29.003906 31.78125 L 17.707031 20.484375 Z M 20.390625 17.800781 " clip-rule="nonzero"/></clipPath><clipPath id="08281bb793"><path d="M 21.453125 18.859375 L 30.515625 27.925781 C 30.796875 28.207031 30.957031 28.589844 30.957031 28.984375 C 30.957031 29.382812 30.796875 29.765625 30.515625 30.046875 L 29.984375 30.582031 C 29.703125 30.863281 29.320312 31.019531 28.921875 31.019531 C 28.523438 31.019531 28.144531 30.863281 27.863281 30.582031 L 18.796875 21.515625 C 18.515625 21.234375 18.355469 20.851562 18.355469 20.453125 C 18.355469 20.054688 18.515625 19.675781 18.796875 19.394531 L 19.332031 18.859375 C 19.613281 18.578125 19.992188 18.421875 20.390625 18.421875 C 20.789062 18.421875 21.171875 18.578125 21.453125 18.859375 " clip-rule="nonzero"/></clipPath><clipPath id="7e7ec41458"><path d="M 18 18 L 31 18 L 31 31 L 18 31 Z M 18 18 " clip-rule="nonzero"/></clipPath><clipPath id="6c1f37e421"><path d="M 20.390625 17.800781 L 31.527344 28.9375 L 28.875 31.585938 L 17.738281 20.449219 Z M 20.390625 17.800781 " clip-rule="nonzero"/></clipPath><clipPath id="e7ebacb3aa"><path d="M 20.398438 17.804688 L 31.632812 29.039062 L 28.949219 31.722656 L 17.71875 20.488281 Z M 20.398438 17.804688 " clip-rule="nonzero"/></clipPath><clipPath id="146fec1904"><path d="M 21.453125 18.859375 L 30.464844 27.875 C 30.746094 28.152344 30.902344 28.535156 30.902344 28.929688 C 30.902344 29.328125 30.742188 29.707031 30.460938 29.988281 L 29.929688 30.519531 C 29.648438 30.800781 29.265625 30.960938 28.871094 30.960938 C 28.472656 30.960938 28.09375 30.804688 27.8125 30.527344 L 18.800781 21.511719 C 18.519531 21.234375 18.363281 20.851562 18.367188 20.457031 C 18.367188 20.058594 18.523438 19.679688 18.804688 19.398438 L 19.339844 18.867188 C 19.621094 18.585938 20 18.425781 20.398438 18.425781 C 20.792969 18.425781 21.171875 18.582031 21.453125 18.859375 " clip-rule="nonzero"/></clipPath><clipPath id="e0c9e5ce56"><path d="M 27.6875 27.75 L 31.578125 27.75 L 31.578125 31.640625 L 27.6875 31.640625 Z M 27.6875 27.75 " clip-rule="nonzero"/></clipPath><clipPath id="80c92a0602"><path d="M 29.632812 27.75 C 28.558594 27.75 27.6875 28.621094 27.6875 29.695312 C 27.6875 30.769531 28.558594 31.640625 29.632812 31.640625 C 30.707031 31.640625 31.578125 30.769531 31.578125 29.695312 C 31.578125 28.621094 30.707031 27.75 29.632812 27.75 " clip-rule="nonzero"/></clipPath><clipPath id="7f474d6c0d"><path d="M 16 16 L 24 16 L 24 24 L 16 24 Z M 16 16 " clip-rule="nonzero"/></clipPath><clipPath id="1e39945495"><path d="M 16.824219 20.855469 L 21.214844 16.8125 L 25.386719 21.339844 L 20.996094 25.382812 Z M 16.824219 20.855469 " clip-rule="nonzero"/></clipPath><clipPath id="94ada8184a"><path d="M 23.097656 23.324219 L 21.148438 16.871094 L 16.824219 20.855469 L 23.097656 23.324219 " clip-rule="nonzero"/></clipPath></defs><g clip-path="url(#0acc501c54)"><g clip-path="url(#43f789f42a)"><path stroke-linecap="butt" transform="matrix(0.744417, 0, 0, 0.744417, 4.425, 3.375)" fill="none" stroke-linejoin="miter" d="M 12.594801 0.000000536593 C 5.636753 0.000000536593 0.00104926 5.640952 0.00104926 12.593752 C 0.00104926 19.546552 5.636753 25.187503 12.594801 25.187503 C 19.547601 25.187503 25.188552 19.546552 25.188552 12.593752 C 25.188552 5.640952 19.547601 0.000000536593 12.594801 0.000000536593 " stroke="#ffffff" stroke-width="6" stroke-opacity="1" stroke-miterlimit="4"/></g></g><g clip-path="url(#e0edf5f178)"><g clip-path="url(#597f610fd7)"><g clip-path="url(#08281bb793)"><path fill="#ffffff" d="M 20.390625 17.800781 L 31.578125 28.984375 L 28.894531 31.671875 L 17.707031 20.484375 Z M 20.390625 17.800781 " fill-opacity="1" fill-rule="nonzero"/></g></g></g><g clip-path="url(#7e7ec41458)"><g clip-path="url(#6c1f37e421)"><g clip-path="url(#e7ebacb3aa)"><g clip-path="url(#146fec1904)"><path stroke-linecap="butt" transform="matrix(0.527973, 0.527973, -0.53033, 0.53033, 20.398098, 17.806262)" fill="none" stroke-linejoin="miter" d="M 1.996446 -0.00180438 L 19.068667 0.00187847 C 19.597665 -0.00180438 20.108167 0.211801 20.481796 0.583768 C 20.859123 0.959419 21.066283 1.467652 21.066283 1.997982 L 21.066283 2.999717 C 21.066283 3.530047 20.855424 4.041963 20.481796 4.413931 C 20.104468 4.789581 19.597665 4.999504 19.068667 5.003186 L 1.996446 4.999504 C 1.467448 5.003186 0.956946 4.789581 0.587017 4.413931 C 0.20969 4.03828 -0.00116989 3.53373 -0.00116989 3.0034 L 0.0025294 1.997982 C 0.0025294 1.467652 0.20969 0.959419 0.587017 0.583768 C 0.960645 0.211801 1.467448 0.00187847 1.996446 -0.00180438 " stroke="#ffffff" stroke-width="4" stroke-opacity="1" stroke-miterlimit="4"/></g></g></g></g><g clip-path="url(#e0c9e5ce56)"><g clip-path="url(#80c92a0602)"><path fill="#ffffff" d="M 27.6875 27.75 L 31.578125 27.75 L 31.578125 31.640625 L 27.6875 31.640625 Z M 27.6875 27.75 " fill-opacity="1" fill-rule="nonzero"/></g></g><g clip-path="url(#7f474d6c0d)"><g clip-path="url(#1e39945495)"><g clip-path="url(#94ada8184a)"><path fill="#ffffff" d="M 16.824219 20.855469 L 21.144531 16.875 L 25.25 21.335938 L 20.933594 25.3125 Z M 16.824219 20.855469 " fill-opacity="1" fill-rule="nonzero"/></g></g></g></svg>