<svg xmlns="http://www.w3.org/2000/svg" xmlns:xlink="http://www.w3.org/1999/xlink" width="45" zoomAndPan="magnify" viewBox="0 0 33.75 33.749999" height="45" preserveAspectRatio="xMidYMid meet" version="1.0"><defs><clipPath id="0da2ef7875"><path d="M 4.425781 3.375 L 23.175781 3.375 L 23.175781 22.125 L 4.425781 22.125 Z M 4.425781 3.375 " clip-rule="nonzero"/></clipPath><clipPath id="2054279804"><path d="M 13.800781 3.375 C 8.621094 3.375 4.425781 7.574219 4.425781 12.75 C 4.425781 17.925781 8.621094 22.125 13.800781 22.125 C 18.976562 22.125 23.175781 17.925781 23.175781 12.75 C 23.175781 7.574219 18.976562 3.375 13.800781 3.375 " clip-rule="nonzero"/></clipPath><clipPath id="cc38248529"><path d="M 19 19 L 31 19 L 31 32 L 19 32 Z M 19 19 " clip-rule="nonzero"/></clipPath><clipPath id="55e11c8923"><path d="M 21.589844 19 L 31.660156 29.066406 L 28.972656 31.753906 L 18.90625 21.683594 Z M 21.589844 19 " clip-rule="nonzero"/></clipPath><clipPath id="ae62079d61"><path d="M 22.652344 20.058594 L 30.515625 27.925781 C 30.796875 28.207031 30.957031 28.589844 30.957031 28.988281 C 30.957031 29.382812 30.796875 29.765625 30.515625 30.046875 L 29.984375 30.582031 C 29.703125 30.863281 29.320312 31.019531 28.921875 31.019531 C 28.523438 31.019531 28.144531 30.863281 27.863281 30.582031 L 19.996094 22.714844 C 19.714844 22.433594 19.554688 22.050781 19.554688 21.65625 C 19.554688 21.257812 19.714844 20.875 19.996094 20.59375 L 20.53125 20.058594 C 20.8125 19.777344 21.191406 19.621094 21.589844 19.621094 C 21.988281 19.621094 22.371094 19.777344 22.652344 20.058594 " clip-rule="nonzero"/></clipPath><clipPath id="dd8f36933d"><path d="M 19 19 L 32 19 L 32 32 L 19 32 Z M 19 19 " clip-rule="nonzero"/></clipPath><clipPath id="7ba658e60f"><path d="M 21.589844 19 L 31.667969 29.074219 L 29.015625 31.726562 L 18.9375 21.652344 Z M 21.589844 19 " clip-rule="nonzero"/></clipPath><clipPath id="359e3a638c"><path d="M 21.597656 19.003906 L 31.742188 29.152344 L 29.0625 31.832031 L 18.914062 21.6875 Z M 21.597656 19.003906 " clip-rule="nonzero"/></clipPath><clipPath id="2c89c9c329"><path d="M 22.664062 20.074219 L 30.59375 28 C 30.875 28.285156 31.035156 28.667969 31.039062 29.066406 C 31.039062 29.464844 30.882812 29.847656 30.601562 30.128906 L 30.070312 30.664062 C 29.789062 30.945312 29.40625 31.101562 29.007812 31.097656 C 28.605469 31.097656 28.222656 30.9375 27.941406 30.652344 L 20.011719 22.726562 C 19.730469 22.441406 19.570312 22.058594 19.566406 21.660156 C 19.566406 21.261719 19.722656 20.878906 20.003906 20.597656 L 20.535156 20.066406 C 20.816406 19.785156 21.199219 19.628906 21.597656 19.628906 C 22 19.628906 22.382812 19.789062 22.664062 20.074219 " clip-rule="nonzero"/></clipPath><clipPath id="495ce42588"><path d="M 27.6875 27.75 L 31.578125 27.75 L 31.578125 31.640625 L 27.6875 31.640625 Z M 27.6875 27.75 " clip-rule="nonzero"/></clipPath><clipPath id="0ed6bc5caf"><path d="M 29.632812 27.75 C 28.558594 27.75 27.6875 28.621094 27.6875 29.695312 C 27.6875 30.769531 28.558594 31.640625 29.632812 31.640625 C 30.707031 31.640625 31.578125 30.769531 31.578125 29.695312 C 31.578125 28.621094 30.707031 27.75 29.632812 27.75 " clip-rule="nonzero"/></clipPath><clipPath id="591d80813b"><path d="M 17 17 L 24 17 L 24 24 L 17 24 Z M 17 17 " clip-rule="nonzero"/></clipPath><clipPath id="39fa94e6f0"><path d="M 17.191406 21.25 L 21.578125 17.207031 L 25.363281 21.316406 L 20.976562 25.359375 Z M 17.191406 21.25 " clip-rule="nonzero"/></clipPath><clipPath id="df837ed5cb"><path d="M 23.097656 23.324219 L 21.515625 17.265625 L 17.191406 21.25 L 23.097656 23.324219 " clip-rule="nonzero"/></clipPath></defs><g clip-path="url(#0da2ef7875)"><g clip-path="url(#2054279804)"><path stroke-linecap="butt" transform="matrix(0.744417, 0, 0, 0.744417, 4.425, 3.375)" fill="none" stroke-linejoin="miter" d="M 12.594801 0.000000536593 C 5.636753 0.000000536593 0.00104926 5.640952 0.00104926 12.593752 C 0.00104926 19.546552 5.636753 25.187503 12.594801 25.187503 C 19.547601 25.187503 25.188552 19.546552 25.188552 12.593752 C 25.188552 5.640952 19.547601 0.000000536593 12.594801 0.000000536593 " stroke="#000000" stroke-width="4" stroke-opacity="1" stroke-miterlimit="4"/></g></g><g clip-path="url(#cc38248529)"><g clip-path="url(#55e11c8923)"><g clip-path="url(#ae62079d61)"><path fill="#000000" d="M 21.589844 19 L 31.546875 28.957031 L 28.863281 31.640625 L 18.90625 21.683594 Z M 21.589844 19 " fill-opacity="1" fill-rule="nonzero"/></g></g></g><g clip-path="url(#dd8f36933d)"><g clip-path="url(#7ba658e60f)"><g clip-path="url(#359e3a638c)"><g clip-path="url(#2c89c9c329)"><path stroke-linecap="butt" transform="matrix(0.535171, 0.535171, -0.53033, 0.53033, 21.596301, 19.005545)" fill="none" stroke-linejoin="miter" d="M 1.996029 0.000860539 L 16.809483 -0.00282231 C 17.338665 0.000860539 17.84595 0.210783 18.221852 0.582751 C 18.594104 0.958401 18.805777 1.466634 18.805777 1.996964 L 18.809427 3.002382 C 18.809427 3.532712 18.597754 4.040945 18.221852 4.412913 C 17.84595 4.792246 17.338665 5.002168 16.809483 4.998486 L 1.996029 5.002168 C 1.466847 4.998486 0.959562 4.788563 0.58366 4.416596 C 0.211408 4.040945 -0.00026514 3.532712 -0.00026514 3.002382 L -0.00026514 2.000647 C -0.00026514 1.470317 0.211408 0.962084 0.58366 0.586433 C 0.959562 0.2071 1.466847 -0.00282231 1.996029 0.000860539 " stroke="#000000" stroke-width="4" stroke-opacity="1" stroke-miterlimit="4"/></g></g></g></g><g clip-path="url(#495ce42588)"><g clip-path="url(#0ed6bc5caf)"><path fill="#000000" d="M 27.6875 27.75 L 31.578125 27.75 L 31.578125 31.640625 L 27.6875 31.640625 Z M 27.6875 27.75 " fill-opacity="1" fill-rule="nonzero"/></g></g><g clip-path="url(#591d80813b)"><g clip-path="url(#39fa94e6f0)"><g clip-path="url(#df837ed5cb)"><path fill="#000000" d="M 17.191406 21.25 L 21.511719 17.269531 L 25.230469 21.3125 L 20.910156 25.289062 Z M 17.191406 21.25 " fill-opacity="1" fill-rule="nonzero"/></g></g></g></svg>